<svg xmlns="http://www.w3.org/2000/svg" viewBox="0 0 32 32" fill="none">
  <defs>
    <linearGradient id="fg" x1="0%" y1="0%" x2="100%" y2="100%">
      <stop offset="0%" stop-color="#7c3aed"/>
      <stop offset="100%" stop-color="#a78bfa"/>
    </linearGradient>
  </defs>
  <rect width="32" height="32" rx="6" fill="#12121a"/>
  <!-- Simplified knight -->
  <g transform="translate(3, 2)">
    <!-- Base -->
    <rect x="4" y="24" width="18" height="3" rx="1" fill="url(#fg)"/>
    <!-- Body -->
    <path d="M8 24 L7 16 Q6 13 8 11 L10 8 Q12 5 14 4 Q17 3 19 5 Q21 7 21 10 Q21 12 20 13 L19 14 Q22 15 22 17 Q22 19 20 20 L19 21 Q18 23 17 24 Z" fill="url(#fg)"/>
    <!-- Eye -->
    <circle cx="17" cy="8" r="2.5" fill="#0a0a0f"/>
    <circle cx="17" cy="8" r="1.5" fill="#c4b5fd"/>
    <!-- Antenna -->
    <line x1="16" y1="4" x2="16" y2="1" stroke="#a78bfa" stroke-width="1.5" stroke-linecap="round"/>
    <circle cx="16" cy="0.5" r="1" fill="#c4b5fd"/>
  </g>
</svg>
